<svg xmlns="http://www.w3.org/2000/svg" viewBox="0 0 100 100">
  <!-- Background circle -->
  <circle cx="50" cy="50" r="50" fill="#1a472a"/>

  <!-- Santa Hat -->
  <ellipse cx="50" cy="22" rx="28" ry="9" fill="#fff"/>
  <path d="M26 27 Q22 20 30 14 Q50 4 70 14 Q78 20 74 27 Q70 35 66 42 L34 42 Q30 35 26 27" fill="#C41E3A"/>
  <circle cx="76" cy="16" r="6" fill="#fff"/>

  <!-- Face -->
  <circle cx="50" cy="52" r="24" fill="#FFDAB9"/>

  <!-- Rosy cheeks -->
  <circle cx="35" cy="54" r="4" fill="#FFB6C1" opacity="0.6"/>
  <circle cx="65" cy="54" r="4" fill="#FFB6C1" opacity="0.6"/>

  <!-- Eyes -->
  <ellipse cx="42" cy="48" rx="3" ry="4" fill="#2C1810"/>
  <ellipse cx="58" cy="48" rx="3" ry="4" fill="#2C1810"/>
  <circle cx="43" cy="47" r="1" fill="#fff"/>
  <circle cx="59" cy="47" r="1" fill="#fff"/>

  <!-- Eyebrows -->
  <path d="M36 42 Q42 39 48 42" stroke="#fff" stroke-width="2.5" fill="none" stroke-linecap="round"/>
  <path d="M52 42 Q58 39 64 42" stroke="#fff" stroke-width="2.5" fill="none" stroke-linecap="round"/>

  <!-- Nose -->
  <ellipse cx="50" cy="55" rx="4" ry="3" fill="#E8A087"/>

  <!-- Mustache -->
  <path d="M34 62 Q42 58 50 62 Q58 58 66 62" fill="#fff"/>
  <ellipse cx="38" cy="62" rx="6" ry="4" fill="#fff"/>
  <ellipse cx="62" cy="62" rx="6" ry="4" fill="#fff"/>

  <!-- Beard -->
  <path d="M30 60 Q26 68 30 80 Q38 88 50 88 Q62 88 70 80 Q74 68 70 60 Q62 66 50 66 Q38 66 30 60" fill="#fff"/>

  <!-- Smile -->
  <path d="M44 70 Q50 75 56 70" stroke="#C41E3A" stroke-width="1.5" fill="none" stroke-linecap="round"/>
</svg>
