<svg xmlns="http://www.w3.org/2000/svg" viewBox="0 0 100 100">
  <!-- Santa Hat -->
  <ellipse cx="50" cy="18" rx="35" ry="12" fill="#fff"/>
  <path d="M20 25 Q15 15 25 8 Q50 -5 75 8 Q85 15 80 25 Q75 35 70 45 L30 45 Q25 35 20 25" fill="#C41E3A"/>
  <circle cx="82" cy="12" r="8" fill="#fff"/>

  <!-- Face -->
  <circle cx="50" cy="55" r="30" fill="#FFDAB9"/>

  <!-- Rosy cheeks -->
  <circle cx="32" cy="58" r="6" fill="#FFB6C1" opacity="0.6"/>
  <circle cx="68" cy="58" r="6" fill="#FFB6C1" opacity="0.6"/>

  <!-- Eyes -->
  <ellipse cx="40" cy="50" rx="4" ry="5" fill="#2C1810"/>
  <ellipse cx="60" cy="50" rx="4" ry="5" fill="#2C1810"/>
  <circle cx="41" cy="48" r="1.5" fill="#fff"/>
  <circle cx="61" cy="48" r="1.5" fill="#fff"/>

  <!-- Eyebrows -->
  <path d="M33 42 Q40 38 47 42" stroke="#fff" stroke-width="3" fill="none" stroke-linecap="round"/>
  <path d="M53 42 Q60 38 67 42" stroke="#fff" stroke-width="3" fill="none" stroke-linecap="round"/>

  <!-- Nose -->
  <ellipse cx="50" cy="58" rx="5" ry="4" fill="#E8A087"/>

  <!-- Mustache -->
  <path d="M30 68 Q40 62 50 68 Q60 62 70 68" fill="#fff"/>
  <ellipse cx="35" cy="68" rx="8" ry="5" fill="#fff"/>
  <ellipse cx="65" cy="68" rx="8" ry="5" fill="#fff"/>

  <!-- Beard -->
  <path d="M25 65 Q20 75 25 90 Q35 100 50 100 Q65 100 75 90 Q80 75 75 65 Q65 72 50 72 Q35 72 25 65" fill="#fff"/>

  <!-- Smile under mustache -->
  <path d="M42 76 Q50 82 58 76" stroke="#C41E3A" stroke-width="2" fill="none" stroke-linecap="round"/>
</svg>
